<svg width="115" height="21" viewBox="0 0 115 21" fill="none" xmlns="http://www.w3.org/2000/svg">
<g clip-path="url(#clip0)">
<path d="M114.664 16.3298H114.472V14.9584H114.465L113.931 16.3298H113.806L113.272 14.9584H113.265V16.3298H113.073V14.7984H113.426L113.869 15.9299H113.876L114.31 14.7984H114.664V16.3298H114.664ZM112.786 14.9441H112.293V16.3298H112.101V14.9441H111.608V14.7984H112.786V14.9441H112.786ZM33.7285 10.4899C33.7285 13.8399 31.7814 16.6699 28.205 16.6699C24.6285 16.6699 22.6814 13.8399 22.6814 10.4899C22.6814 7.13985 24.6278 4.30985 28.2043 4.30985C31.7807 4.30985 33.7278 7.13985 33.7278 10.4899H33.7285ZM24.1078 10.4899C24.1078 12.9799 25.4657 15.4699 28.205 15.4699C30.9443 15.4699 32.3021 12.9799 32.3021 10.4899C32.3021 7.99985 30.9435 5.50985 28.2043 5.50985C25.465 5.50985 24.1071 7.99985 24.1071 10.4899H24.1078ZM33.4743 4.64985H35.0585L38.7257 14.9041H38.7707L42.3928 4.64985H43.8643L39.4957 16.3298H37.9785L33.4735 4.64985H33.4743ZM45.1835 10.8749C45.2064 12.957 46.2928 15.4699 49.0321 15.4699C51.115 15.4699 52.2464 14.2477 52.6993 12.482H54.1257C53.5143 15.1306 51.975 16.6699 49.0321 16.6699C45.32 16.6699 43.7578 13.8177 43.7578 10.4899C43.7578 7.41128 45.32 4.30985 49.0321 4.30985C52.7893 4.30985 54.2835 7.59271 54.1707 10.8741H45.1828L45.1835 10.8749ZM52.7443 9.67485C52.6764 7.52485 51.3414 5.50985 49.0321 5.50985C46.7007 5.50985 45.4107 7.54699 45.1835 9.67485H52.7443ZM68.8243 8.06771C68.7557 6.30271 67.3978 5.50985 65.7678 5.50985C64.5 5.50985 63.0057 6.00771 63.0057 7.52414C63.0057 8.79199 64.455 9.24557 65.4278 9.49414L67.3293 9.92414C68.9593 10.1727 70.6578 11.1241 70.6578 13.1606C70.6578 15.6963 68.1443 16.6699 65.9721 16.6699C63.255 16.6699 61.3985 15.402 61.1721 12.5498H62.5985C62.7121 14.4741 64.1378 15.4699 66.0393 15.4699C67.375 15.4699 69.2314 14.8813 69.2314 13.2513C69.2314 11.8941 67.9635 11.4406 66.6728 11.1234L64.8393 10.7163C62.9835 10.2184 61.58 9.58414 61.58 7.59199C61.58 5.21556 63.9114 4.30985 65.9714 4.30985C68.3028 4.30985 70.1593 5.53271 70.25 8.06771H68.8235H68.8243ZM74.1578 4.64985H76.5343V5.84985H74.1571V13.727C74.1571 14.6556 74.2928 15.1984 75.3114 15.2663C75.7185 15.2663 76.1264 15.2434 76.5336 15.1984V16.4206C76.1035 16.4206 75.6964 16.4656 75.2664 16.4656C73.3643 16.4656 72.7078 15.832 72.7307 13.8398V5.84914H71.35V4.64914H72.7307V1.14199H74.1571V4.65056L74.1578 4.64985ZM87.8478 10.4899C87.8478 13.8399 85.9007 16.6699 82.3243 16.6699C78.7478 16.6699 76.8007 13.8399 76.8007 10.4899C76.8007 7.13985 78.7478 4.30985 82.3243 4.30985C85.9007 4.30985 87.8478 7.13985 87.8478 10.4899ZM78.2264 10.4899C78.2264 12.9799 79.585 15.4699 82.3243 15.4699C85.0628 15.4699 86.4214 12.9799 86.4214 10.4899C86.4214 7.99985 85.0621 5.50985 82.3235 5.50985C79.5843 5.50985 78.2264 7.99985 78.2264 10.4899ZM97.9536 8.31699C97.5686 6.57414 96.505 5.50985 94.6486 5.50985C91.9093 5.50985 90.5514 7.99985 90.5514 10.4899C90.5514 12.9799 91.9093 15.4699 94.6486 15.4699C96.4143 15.4699 97.8628 14.0891 98.0435 12.1427H99.47C99.085 14.9499 97.2521 16.6699 94.6486 16.6699C91.0721 16.6699 89.125 13.8399 89.125 10.4899C89.125 7.13985 91.0721 4.30985 94.6486 4.30985C97.1385 4.30985 99.0628 5.64556 99.38 8.31699H97.9536ZM100.968 0.166992H102.394V10.3084L108.869 4.64985H110.769L105.789 8.97342L111.109 16.3306H109.321L104.704 9.96914L102.394 11.8934V16.3298H100.968V0.167706V0.166992ZM60.8443 4.54271V5.95985C58.7785 6.26628 57.4271 7.98628 57.4271 10.1056V16.3306H56V4.64985H57.3135V7.38842H57.3585C57.9714 5.79914 59.205 4.76985 60.8443 4.54199V4.54271Z" fill="#2F3337"/>
<path d="M0 0.0810547H20V20.0811H9.72214C13.2607 18.8225 16.2564 15.6525 17.0457 11.9382C18.07 7.12034 14.9943 3.21463 10.1764 3.21463C5.82643 3.21463 1.54571 6.3982 0 10.5625V0.0810547ZM14.2857 11.8668C14.2857 16.0089 11.7271 19.3668 8.57143 19.3668C5.41571 19.3668 2.85714 16.0089 2.85714 11.8668C2.85714 7.72463 5.41571 4.36677 8.57143 4.36677C11.7271 4.36677 14.2857 7.72463 14.2857 11.8668Z" fill="#FF1F2C"/>
</g>
<defs>
<clipPath id="clip0">
<path d="M0 0.0810547H115V20.0811H0V0.0810547Z" fill="white"/>
</clipPath>
</defs>
</svg>
