<svg  id="Layer_1-overstock-com-square" height="32" width="181" color="#FF1F2C" viewBox="0 0 164 29"><style>.st0-overstock-com-square{fill:none}.st1-overstock-com-square,.st2-overstock-com-square{fill-rule:evenodd;clip-rule:evenodd;fill:#fff}.st2-overstock-com-square{fill:#c7202c}</style><path class="st0-overstock-com-square" d="M504.9 484.4c-3.6 0-4.4 3.8-4.4 5.8h8.5c0-2.1-.7-5.8-4.1-5.8z"/><path class="st1-overstock-com-square" d="M72 518.5c0 58.5 25.9 79.1 72.7 79.1h110.1c8.6 0 15.6-7 15.6-15.6V414.8c0-8.6-7-15.6-15.6-15.6H87.6c-8.6 0-15.6 7-15.6 15.6v103.7z"/><path class="st2-overstock-com-square" d="M196.3 569c12.9-16 19.3-35.9 19.3-59.6 0-19.9-5-36.3-15.1-49.4-10.1-13.1-22.7-19.6-38-19.6-19.3 0-35.4 8-48.4 24-12.9 16-19.4 35.9-19.4 59.8 0 20 5 36.4 15.1 49.4s22.9 19.5 38.4 19.5c19.2-.1 35.2-8.1 48.1-24.1M72 399.2v109.4c4.9-17.2 14.7-32.7 29.3-46.6 22.1-21 48.2-31.5 78.2-31.5 18.6 0 33.7 6.2 45.3 18.5 11.6 12.3 17.4 28.4 17.4 48.2 0 28.7-11.1 53.5-33.3 74.5-13 12.2-27.4 20.9-43.2 26h104.6V399.2H72z"/><path d="M333.5 476.8c-24 0-34.9 20.3-34.9 39.6 0 19.4 10.9 39.6 34.9 39.6s34.9-20.3 34.9-39.6-10.9-39.6-34.9-39.6zm0 68.4c-18.1 0-21.8-18.7-21.8-28.7 0-10.1 3.7-28.7 21.8-28.7s21.8 18.7 21.8 28.7-3.7 28.7-21.8 28.7zm73.4-5.1h-.3L387.1 479h-14.7l27.4 75.1h13.5l28.6-75.1h-13.8l-21.2 61.1zm74.4-63.3c-24.8 0-36.1 18.5-36.1 41.8 0 21.7 12.5 37.6 33.6 37.6 12.1 0 16.9-2.9 20.4-5.2 9.5-6.3 12.9-16.9 13.4-20.5H500c-.4 5.6-7.5 14.8-19.4 14.8-14.5 0-21.8-9-21.8-24.7h54.9c-.1-26.6-10.7-43.8-32.4-43.8zm-22.6 33.8c0-11.6 9.2-22.4 20.8-22.4 15.4 0 20.3 10.8 21 22.4h-41.8zm81.7-19.1h-.3V479h-11.9v75.1h12.6v-43.7c0-10.9 7.5-20.1 19.2-20.1h4.7v-13.1c-1-.3-1.7-.4-3.3-.4-9.3 0-15.9 5.9-21 14.7zm69.4 20.1l-12.6-3.2c-9.8-2.4-13.6-3.9-13.6-10.1 0-9.3 11.1-10.6 14.9-10.6 15.9 0 17.7 7.9 17.8 12.6h12.2c0-3.7-1.9-23.6-28.7-23.6-14.8 0-28.4 7.5-28.4 24 0 10.3 6.9 15.7 17.4 18.2l14.7 3.6c10.8 2.7 14.9 4.7 14.9 10.8 0 8.3-8.2 11.9-17.2 11.9-17.8 0-19.5-9.5-20-15.4H569c.4 9 2.6 26.3 32.3 26.3 16.9 0 29.7-9.3 29.7-24.8-.1-10.1-5.5-15.9-21.2-19.7zm51.1-53.6h-12.6v21h-10.2v10.5h10.2V539c0 9 2.7 16.1 15.2 16.1 1.3 0 4.9-.6 9.5-1v-9.9h-4.5c-2.6 0-7.6 0-7.6-5.9v-48.8H673V479h-12.1v-21zm54.3 18.8c-24 0-34.9 20.3-34.9 39.6 0 19.4 10.9 39.6 34.9 39.6s34.9-20.3 34.9-39.6-10.9-39.6-34.9-39.6zm0 68.4c-18.1 0-21.8-18.7-21.8-28.7 0-10.1 3.7-28.7 21.8-28.7s21.8 18.7 21.8 28.7c.1 10-3.7 28.7-21.8 28.7zm80.6-57c10.6 0 16.2 6 17.8 16.1h12.2c-1-13.1-8.5-27.4-28.2-27.4-24.8 0-36 18.5-36 41.8 0 21.7 12.5 37.6 33.6 37.6 22 0 29.3-16.8 30.6-28.7h-12.2c-2.2 11.5-9.5 17.8-18 17.8-17.4 0-20.5-15.9-20.5-28.9 0-13.4 5.1-28.3 20.7-28.3zm102.9-9.2h-16.1l-32.3 31.7V451H838v103.1h12.2v-28.4l10.5-9.5 23.4 37.9h16.2L869.9 507l28.8-28zm6.9-18.3v12.1h-2.3v-12.1h-4.4v-1.9H910v1.9h-4.4zm20.3 12.2v-11.7h-.1l-4.6 11.7h-1.5l-4.6-11.7h-.1v11.7h-2.3v-14h3.6l4.2 10.6 4.1-10.6h3.5v14h-2.2z"/></svg>
